<?xml version="1.0" standalone="no"?>
<svg xmlns:xlink="http://www.w3.org/1999/xlink" id="wave" style="transform:rotate(180deg); transition: 0.3s" viewBox="0 0 1440 490" version="1.1" xmlns="http://www.w3.org/2000/svg"><defs><linearGradient id="sw-gradient-0" x1="0" x2="0" y1="1" y2="0"><stop stop-color="rgba(255, 255, 255, 1)" offset="0%"/><stop stop-color="rgba(65.588, 12.327, 255, 1)" offset="100%"/></linearGradient></defs><path style="transform:translate(0, 0px); opacity:1" fill="url(#sw-gradient-0)" d="M0,0L80,65.3C160,131,320,261,480,310.3C640,359,800,327,960,285.8C1120,245,1280,196,1440,179.7C1600,163,1760,180,1920,179.7C2080,180,2240,163,2400,187.8C2560,212,2720,278,2880,294C3040,310,3200,278,3360,285.8C3520,294,3680,343,3840,375.7C4000,408,4160,425,4320,432.8C4480,441,4640,441,4800,400.2C4960,359,5120,278,5280,277.7C5440,278,5600,359,5760,400.2C5920,441,6080,441,6240,400.2C6400,359,6560,278,6720,269.5C6880,261,7040,327,7200,343C7360,359,7520,327,7680,294C7840,261,8000,229,8160,220.5C8320,212,8480,229,8640,220.5C8800,212,8960,180,9120,171.5C9280,163,9440,180,9600,163.3C9760,147,9920,98,10080,73.5C10240,49,10400,49,10560,65.3C10720,82,10880,114,11040,155.2C11200,196,11360,245,11440,269.5L11520,294L11520,490L11440,490C11360,490,11200,490,11040,490C10880,490,10720,490,10560,490C10400,490,10240,490,10080,490C9920,490,9760,490,9600,490C9440,490,9280,490,9120,490C8960,490,8800,490,8640,490C8480,490,8320,490,8160,490C8000,490,7840,490,7680,490C7520,490,7360,490,7200,490C7040,490,6880,490,6720,490C6560,490,6400,490,6240,490C6080,490,5920,490,5760,490C5600,490,5440,490,5280,490C5120,490,4960,490,4800,490C4640,490,4480,490,4320,490C4160,490,4000,490,3840,490C3680,490,3520,490,3360,490C3200,490,3040,490,2880,490C2720,490,2560,490,2400,490C2240,490,2080,490,1920,490C1760,490,1600,490,1440,490C1280,490,1120,490,960,490C800,490,640,490,480,490C320,490,160,490,80,490L0,490Z"/></svg>